PathFileType	4	(X/Y/Z)	./resultDataOpenSim/trcMotMarkerGrf/sub10/qtm-15-05.trc
DataRate	CameraRate	NumFrames	NumMarkers	Units	OrigDataRate	OrigDataStartFrame	OrigNumFrames
250.000000	250.000000	12	24	m	250.000000	1	501
Frame#	Time	L.Toe.Tip			R.Toe.Tip			L.Ankle.Lat			R.Ankle.Lat			L.Ankle.Med			R.Ankle.Med			L.Heel			R.Heel			L.Knee.Lat			R.Knee.Lat			L.Knee.Med			R.Knee.Med			L.Thigh.Upper			R.Thigh.Upper			L.ASIS			R.ASIS			V.Sacral			L.Acromium			R.Acromium			C7			L.Elbow			R.Elbow			L.Wrist.Lat			R.Wrist.Lat
		X1	Y1	Z1	X2	Y2	Z2	X3	Y3	Z3	X4	Y4	Z4	X5	Y5	Z5	X6	Y6	Z6	X7	Y7	Z7	X8	Y8	Z8	X9	Y9	Z9	X10	Y10	Z10	X11	Y11	Z11	X12	Y12	Z12	X13	Y13	Z13	X14	Y14	Z14	X15	Y15	Z15	X16	Y16	Z16	X17	Y17	Z17	X18	Y18	Z18	X19	Y19	Z19	X20	Y20	Z20	X21	Y21	Z21	X22	Y22	Z22	X23	Y23	Z23	X24	Y24	Z24

1	0	-1.4952574	0.038163723	-0.12415197	-0.79117805	0.12918381	0.077907223	-1.6276401	0.078936637	-0.16351185	-0.92126028	0.079756974	0.11119776	-1.6078503	0.095668828	-0.07076336	-0.91668133	0.1139981	0.029545182	NaN	NaN	NaN	-0.95192103	0.033473559	0.060324765	-1.4607253	0.42623451	-0.18072703	-1.1035083	0.44399203	0.1259761	-1.460064	0.40284711	-0.058967581	-1.0812421	0.44565197	-0.00079941195	-1.3355806	0.8006843	-0.23296391	-1.2572204	0.8219838	0.1512167	-1.2561367	0.90108767	-0.17966328	-1.2023937	0.9173538	0.063994246	-1.4255786	0.91709559	-0.012749346	-1.2608893	1.369164	-0.20801577	-1.2935538	1.3682935	0.11629286	-1.3632354	1.4041624	-0.058332342	-1.2966024	1.0164603	-0.25731928	-1.428777	1.0469278	0.15316298	-1.0731696	0.90456065	-0.2620855	-1.3388814	0.833571	0.23437024
2	0.004	-1.4952091	0.038182262	-0.12414038	-0.78415492	0.12919596	0.077906907	-1.6272231	0.080029928	-0.16310138	-0.91423347	0.079739625	0.11237669	-1.6082753	0.096691274	-0.070258361	-0.91011472	0.11388493	0.030661153	NaN	NaN	NaN	-0.94512363	0.033384965	0.061884869	-1.4568341	0.4259571	-0.18017031	-1.0977476	0.44388185	0.1264924	-1.4561059	0.40233935	-0.058505333	-1.0760688	0.44501776	-8.6441082e-05	-1.3313574	0.80005565	-0.2324822	-1.2510235	0.8211886	0.1515295	-1.251874	0.90036326	-0.17981144	-1.1968331	0.91651409	0.063836696	-1.4200905	0.91599813	-0.011477597	-1.2559979	1.3682125	-0.20761407	-1.2881086	1.3673828	0.11672876	-1.3581391	1.4032536	-0.057711228	-1.290667	1.0153377	-0.25643769	-1.4240024	1.0461422	0.15333399	-1.0665521	0.90490993	-0.26068756	-1.3355216	0.83259079	0.23478817
3	0.008	-1.4951549	0.038199915	-0.12413403	-0.77745526	0.12898793	0.077876771	-1.6267702	0.081190659	-0.1627294	-0.90753086	0.079600513	0.11353028	-1.6080294	0.097731091	-0.069841359	-0.90381876	0.11367055	0.031754309	NaN	NaN	NaN	-0.93867425	0.03321754	0.063387373	-1.4529923	0.42568145	-0.17968118	-1.0921488	0.44387705	0.12695159	-1.4521025	0.40184408	-0.058052302	-1.0708638	0.44441203	0.00059160553	-1.3271481	0.79941211	-0.23205149	-1.2447876	0.82048567	0.15180114	-1.2475343	0.89965474	-0.17991608	-1.191279	0.91570607	0.063695785	-1.4144235	0.91496007	-0.010068685	-1.2510811	1.367298	-0.20720355	-1.2826082	1.3665058	0.11717802	-1.353038	1.4023636	-0.057102201	-1.2847312	1.0142686	-0.25552379	-1.4191317	1.0453824	0.15350732	-1.0599678	0.90523518	-0.25929782	-1.3322555	0.83161224	0.23516103
4	0.012	-1.4950897	0.038218458	-0.12413554	-0.77125605	0.12842575	0.077854202	-1.626269	0.082451657	-0.16245287	-0.90134847	0.079271491	0.1146428	-1.6070721	0.098822836	-0.069531451	-0.89795618	0.11328114	0.032811728	NaN	NaN	NaN	-0.93274738	0.032939287	0.064807543	-1.4491838	0.42540327	-0.17926636	-1.0864125	0.44405795	0.12743001	-1.4480028	0.40135729	-0.05762848	-1.0655551	0.44388061	0.0012264038	-1.3229352	0.79876834	-0.23170155	-1.2385298	0.81991209	0.152048	-1.2430489	0.89895868	-0.17995867	-1.1857256	0.91495778	0.063590437	-1.4086094	0.91402072	-0.0085850483	-1.2461391	1.3664503	-0.20677941	-1.2770268	1.3656784	0.11764171	-1.3479148	1.4015132	-0.05649212	-1.2787953	1.0132865	-0.25455338	-1.4141006	1.0446588	0.1536913	-1.0534272	0.90554027	-0.257919	-1.3291717	0.83063543	0.23547058
5	0.016	-1.4950109	0.038241052	-0.12414294	-0.76560317	0.12747714	0.077898298	-1.62571	0.083802638	-0.16228762	-0.89575046	0.078746141	0.11571061	-1.6059252	0.09999048	-0.069295794	-0.89259694	0.1126847	0.033832486	NaN	NaN	NaN	-0.92732432	0.032574997	0.066159524	-1.4453577	0.42512558	-0.17889311	-1.0796943	0.44456956	0.12814735	-1.4438019	0.40087088	-0.05724527	-1.0600738	0.44346613	0.0018260059	-1.3186802	0.79816951	-0.23138841	-1.232299	0.81946482	0.15230931	-1.2384008	0.89827239	-0.17995056	-1.1801777	0.91429035	0.063530163	-1.4028609	0.91320061	-0.007245596	-1.2411903	1.3656893	-0.20634156	-1.2713906	1.3649011	0.11812184	-1.3427636	1.4007197	-0.055865073	-1.2728809	1.0124135	-0.25352538	-1.4088962	1.0439763	0.15390675	-1.0469419	0.90583732	-0.25654923	-1.32635	0.82965029	0.23570952
6	0.02	-1.4949156	0.038269749	-0.12415559	-0.76047882	0.12616346	0.078035972	-1.6250257	0.085192397	-0.1620863	-0.89071804	0.078046041	0.11674084	-1.6049843	0.10124218	-0.069115206	-0.88773493	0.11188433	0.034818824	NaN	NaN	NaN	-0.92231636	0.032159417	0.067479851	-1.4414622	0.42487008	-0.1785424	-1.0712619	0.44559227	0.1292804	-1.4395519	0.40039017	-0.05689108	-1.0543885	0.44318467	0.0023843049	-1.3143326	0.79766148	-0.23103271	-1.2261225	0.81913598	0.15259772	-1.2336278	0.89760985	-0.17991815	-1.1746211	0.91371702	0.063511348	-1.3973017	0.91250439	-0.0061714383	-1.2362264	1.3650201	-0.20588902	-1.2657177	1.3641763	0.11863037	-1.3375848	1.3999947	-0.055211773	-1.2670154	1.0116676	-0.25245028	-1.4035335	1.0433607	0.15419525	-1.0405199	0.90612888	-0.25518602	-1.3235759	0.82867718	0.23590405
7	0.024	-1.4948002	0.038304367	-0.12417917	-0.75584591	0.12451742	0.078276469	-1.6240596	0.086522734	-0.16148537	-0.88620781	0.077195196	0.11774188	-1.604122	0.10258533	-0.069012095	-0.88327923	0.11090374	0.035768758	NaN	NaN	NaN	-0.91774971	0.031671957	0.06878915	-1.4374624	0.42465782	-0.17822132	-1.0617048	0.44694802	0.13064174	-1.4352711	0.39994444	-0.056558331	-1.0485064	0.44303307	0.0028810101	-1.3098591	0.7972533	-0.23060167	-1.2200069	0.81892065	0.15291036	-1.2287943	0.89698738	-0.17988385	-1.1689745	0.91323727	0.063522047	-1.3918638	0.91191655	-0.0052915429	-1.2312217	1.3644405	-0.2054154	-1.2599758	1.3635189	0.11917338	-1.3323771	1.3993459	-0.054524062	-1.2612181	1.0110605	-0.251331	-1.3980608	1.042878	0.1546182	-1.0341664	0.90641241	-0.25383075	-1.3203517	0.82778839	0.23611987
8	0.028	-1.4946628	0.038343347	-0.12421981	-0.75166673	0.12257004	0.078632722	-1.622675	0.087715692	-0.16016256	-0.88218495	0.07621322	0.11871592	-1.6030248	0.10402494	-0.069017942	-0.87910396	0.109772	0.036685968	NaN	NaN	NaN	-0.91377601	0.031040945	0.070071202	-1.4333495	0.42449342	-0.17794098	-1.0530255	0.44795608	0.13165132	-1.4309043	0.39957375	-0.056262076	-1.042464	0.44299779	0.0033073586	-1.3052528	0.79691904	-0.23010949	-1.2139526	0.81880545	0.15325118	-1.2239397	0.89640159	-0.17985445	-1.1631061	0.91282931	0.0635388	-1.3864297	0.9114171	-0.0044906319	-1.2261613	1.3639482	-0.20490997	-1.2541285	1.3629463	0.11974334	-1.3271352	1.3987738	-0.053797125	-1.2554934	1.010596	-0.25016224	-1.392592	1.042612	0.15524073	-1.027888	0.90668594	-0.25248764	-1.3164746	0.82703698	0.23638902
9	0.032	-1.4945029	0.038386448	-0.12427601	-0.74790845	0.12035534	0.079116485	-1.6209572	0.088849088	-0.15832456	-0.87862629	0.075113951	0.11966098	-1.6016353	0.10556295	-0.069127822	-0.87517296	0.10850811	0.037578554	NaN	NaN	NaN	-0.91048743	0.030224334	0.071296659	-1.4291275	0.42437827	-0.17770007	-1.0465128	0.44816512	0.13194081	-1.4264287	0.39929017	-0.0560156	-1.0363117	0.443058	0.0036715972	-1.3005125	0.79663774	-0.22959102	-1.2079406	0.81877646	0.15362921	-1.2190385	0.8958336	-0.1798181	-1.1569518	0.9124695	0.063539355	-1.380942	0.9110045	-0.0037176159	-1.2210429	1.363542	-0.20436503	-1.2482005	1.3624634	0.12032966	-1.3218505	1.3982739	-0.053024054	-1.249828	1.0102697	-0.24894284	-1.3873243	1.0426109	0.15610846	-1.0216916	0.90695197	-0.25115967	-1.3122569	0.82640516	0.23668056
10	0.036	-1.4943194	0.038436706	-0.12433934	-0.74454401	0.11791244	0.079726041	-1.6191825	0.090119675	-0.15666117	-0.87551408	0.073909034	0.12057375	-1.6001454	0.10719901	-0.069299079	-0.87157217	0.10711578	0.038442503	NaN	NaN	NaN	-0.90782532	0.029248709	0.072451985	-1.424794	0.42431837	-0.17748661	-1.0410342	0.44800025	0.13185835	-1.4218864	0.3990687	-0.055814222	-1.0300643	0.4432051	0.0039853826	-1.295641	0.79640732	-0.22906326	-1.2019039	0.81884474	0.15405572	-1.2140217	0.89528166	-0.17974711	-1.1506405	0.91217003	0.063550238	-1.375382	0.91068376	-0.0029580338	-1.2158747	1.3632215	-0.20378427	-1.242255	1.3620629	0.12092973	-1.3165165	1.3978424	-0.052198447	-1.2441957	1.0100672	-0.247688	-1.3824237	1.0428391	0.15720315	-1.0155799	0.90721446	-0.24984187	-1.3080844	0.82584379	0.23696165
11	0.04	-1.494111	0.038499388	-0.12440215	-0.7415622	0.11528321	0.080434748	-1.6175	0.091599044	-0.15561185	-0.87283326	0.072614519	0.12144513	-1.5987697	0.10891958	-0.069491017	-0.86838824	0.105597	0.039262533	NaN	NaN	NaN	-0.90567047	0.028166754	0.073540138	-1.4203381	0.42431958	-0.17729512	-1.0346572	0.44817453	0.13198807	-1.4172881	0.39888708	-0.055649202	-1.0236862	0.44345366	0.0042557605	-1.290676	0.79622378	-0.22845215	-1.1957879	0.81902546	0.15453544	-1.2088379	0.89477519	-0.17961215	-1.1444293	0.91197793	0.063652472	-1.3697386	0.91045137	-0.002205712	-1.2106778	1.3629889	-0.20318234	-1.2363248	1.3617324	0.1215526	-1.3111349	1.3974769	-0.051329163	-1.2385676	1.0099639	-0.24642731	-1.377795	1.0431723	0.1583853	-1.0095545	0.90747248	-0.24852544	-1.3040827	0.82532249	0.23722921
12	0.044	-1.4938774	0.038579215	-0.12446309	-0.73896455	0.11250879	0.08120164	-1.6158118	0.093172612	-0.15503704	-0.87056447	0.071249422	0.12226249	-1.5975917	0.11071028	-0.069693749	-0.86562364	0.10396235	0.040024518	NaN	NaN	NaN	-0.90393263	0.027015729	0.074568667	-1.4157421	0.42438288	-0.17713839	-1.0269885	0.44882389	0.13244934	-1.4125929	0.39874993	-0.05551344	-1.0171548	0.44381613	0.0044859948	-1.2856938	0.79606709	-0.22757786	-1.1896383	0.81929399	0.15505346	-1.2034868	0.8943471	-0.17940147	-1.1384455	0.91192908	0.063898705	-1.3640153	0.91030232	-0.0014737879	-1.2054702	1.3628481	-0.20257152	-1.2303941	1.3614624	0.12221097	-1.3057113	1.3971771	-0.050433505	-1.2329243	1.0099364	-0.24518741	-1.3730731	1.0434792	0.15944814	-1.0036203	0.90772288	-0.24720758	-1.3002038	0.82483084	0.23748194
